<svg width="50" height="50" viewBox="0 0 50 50" fill="none" xmlns="http://www.w3.org/2000/svg">
<path d="M10 39.8734C9.29167 39.8734 8.6975 39.6304 8.2175 39.1443C7.73917 38.6599 7.5 38.0591 7.5 37.3418V24.6203C7.5 23.903 7.73917 23.3122 8.2175 22.8481C8.6975 22.384 9.29167 22.1519 10 22.1519C10.7083 22.1519 11.3025 22.3941 11.7825 22.8785C12.2608 23.3646 12.5 23.9662 12.5 24.6835V37.4051C12.5 38.1224 12.2608 38.7131 11.7825 39.1772C11.3025 39.6414 10.7083 39.8734 10 39.8734ZM25 39.8734C24.2917 39.8734 23.6983 39.6304 23.22 39.1443C22.74 38.6599 22.5 38.0591 22.5 37.3418V24.6203C22.5 23.903 22.74 23.3122 23.22 22.8481C23.6983 22.384 24.2917 22.1519 25 22.1519C25.7083 22.1519 26.3025 22.3941 26.7825 22.8785C27.2608 23.3646 27.5 23.9662 27.5 24.6835V37.4051C27.5 38.1224 27.2608 38.7131 26.7825 39.1772C26.3025 39.6414 25.7083 39.8734 25 39.8734ZM2.4375 50C1.72917 50 1.14583 49.757 0.6875 49.2709C0.229167 48.7865 0 48.1857 0 47.4684C0 46.7511 0.24 46.1502 0.72 45.6658C1.19833 45.1797 1.79167 44.9367 2.5 44.9367H47.5625C48.2708 44.9367 48.8542 45.1797 49.3125 45.6658C49.7708 46.1502 50 46.7511 50 47.4684C50 48.1857 49.76 48.7865 49.28 49.2709C48.8017 49.757 48.2083 50 47.5 50H2.4375ZM40 39.8734C39.2917 39.8734 38.6983 39.6304 38.22 39.1443C37.74 38.6599 37.5 38.0591 37.5 37.3418V24.6203C37.5 23.903 37.74 23.3122 38.22 22.8481C38.6983 22.384 39.2917 22.1519 40 22.1519C40.7083 22.1519 41.3017 22.3941 41.78 22.8785C42.26 23.3646 42.5 23.9662 42.5 24.6835V37.4051C42.5 38.1224 42.26 38.7131 41.78 39.1772C41.3017 39.6414 40.7083 39.8734 40 39.8734ZM27.25 0.506329L48.3125 11.1392C48.8542 11.4346 49.2708 11.8456 49.5625 12.3722C49.8542 12.9004 50 13.481 50 14.1139C50 14.9578 49.6983 15.6641 49.095 16.2329C48.49 16.8034 47.7708 17.0886 46.9375 17.0886H3.125C2.29167 17.0886 1.5625 16.8034 0.9375 16.2329C0.3125 15.6641 0 14.9578 0 14.1139C0 13.481 0.135834 12.9004 0.4075 12.3722C0.6775 11.8456 1.10417 11.4557 1.6875 11.2025L22.75 0.506329C23.4583 0.168776 24.2083 0 25 0C25.7917 0 26.5417 0.168776 27.25 0.506329ZM11.125 12.0253H38.875L25 5.06329L11.125 12.0253Z" fill="white"/>
</svg>
