<svg width="51" height="51" viewBox="0 0 51 51" fill="none" xmlns="http://www.w3.org/2000/svg">
<path d="M48.2128 40.0611H46.4271V20.7429C46.4271 12.7259 38.6667 6.10085 28.5699 4.99858V2.78835C28.5699 1.53267 27.2381 0.515625 25.5937 0.515625C23.9494 0.515625 22.6176 1.53267 22.6176 2.78835V4.99858C12.5208 6.10085 4.76042 12.7259 4.76042 20.7429V40.0611H2.9747C1.65774 40.0611 0.59375 40.8736 0.59375 41.8793V43.6974C0.59375 43.9474 0.861607 44.152 1.18899 44.152H17.2604C17.2604 47.6634 20.9955 50.5156 25.5937 50.5156C30.192 50.5156 33.9271 47.6634 33.9271 44.152H49.9985C50.3259 44.152 50.5937 43.9474 50.5937 43.6974V41.8793C50.5937 40.8736 49.5298 40.0611 48.2128 40.0611ZM25.5937 46.8793C23.622 46.8793 22.0223 45.6577 22.0223 44.152H29.1652C29.1652 45.6577 27.5655 46.8793 25.5937 46.8793ZM10.1176 40.0611V20.7429C10.1176 17.5838 11.7247 14.6179 14.6488 12.3849C17.5729 10.152 21.4568 8.92472 25.5937 8.92472C29.7307 8.92472 33.6146 10.152 36.5387 12.3849C39.4628 14.6179 41.0699 17.5838 41.0699 20.7429V40.0611H10.1176Z" fill="black"/>
</svg>
