<svg width="50" height="50" viewBox="0 0 50 50" fill="none" xmlns="http://www.w3.org/2000/svg">
<path d="M48.0357 17.1C46.7808 13.7732 44.9614 10.7507 42.6786 8.2C40.4012 5.64318 37.7025 3.60553 34.7321 2.2C31.6462 0.7375 28.3761 0 25 0C21.6239 0 18.3538 0.7375 15.2679 2.2C12.2975 3.60553 9.59881 5.64318 7.32143 8.2C5.03855 10.7507 3.21922 13.7732 1.96429 17.1C0.658482 20.5563 0 24.2188 0 28C0 36.2937 3.25335 44.1062 8.92299 49.4437L9.01786 49.5312C9.34152 49.8313 9.74888 50 10.1674 50H39.8382C40.2567 50 40.6641 49.8313 40.9877 49.5312L41.0826 49.4437C46.7467 44.1062 50 36.2937 50 28C50 24.2188 49.3359 20.5563 48.0357 17.1ZM38.9174 45.25H11.0826C8.92632 43.0725 7.20295 40.4115 6.02431 37.4397C4.84568 34.4679 4.23812 31.2518 4.24107 28C4.24107 21.7875 6.40067 15.95 10.3237 11.5625C14.2467 7.16875 19.4587 4.75 25 4.75C30.5469 4.75 35.7589 7.16875 39.6763 11.5625C43.5993 15.9563 45.7589 21.7937 45.7589 28C45.7589 34.6 43.2757 40.8438 38.9174 45.25ZM31.2221 19.3438C31.1382 19.2507 31.0249 19.1985 30.9068 19.1985C30.7887 19.1985 30.6754 19.2507 30.5915 19.3438L25.8761 24.625C24.8326 24.3125 23.6775 24.6125 22.8571 25.5312C22.5666 25.8561 22.3361 26.2418 22.1788 26.6665C22.0215 27.0912 21.9406 27.5465 21.9406 28.0062C21.9406 28.466 22.0215 28.9213 22.1788 29.346C22.3361 29.7707 22.5666 30.1565 22.8571 30.4813C23.1471 30.8067 23.4916 31.0648 23.8708 31.241C24.25 31.4171 24.6565 31.5078 25.067 31.5078C25.4775 31.5078 25.884 31.4171 26.2631 31.241C26.6423 31.0648 26.9868 30.8067 27.2768 30.4813C27.6654 30.0473 27.9449 29.5061 28.087 28.9124C28.2291 28.3187 28.2287 27.6935 28.0859 27.1L32.8013 21.8188C32.9743 21.625 32.9743 21.3062 32.8013 21.1125L31.2221 19.3438ZM23.7723 13H26.2277C26.4732 13 26.6741 12.775 26.6741 12.5V7.5C26.6741 7.225 26.4732 7 26.2277 7H23.7723C23.5268 7 23.3259 7.225 23.3259 7.5V12.5C23.3259 12.775 23.5268 13 23.7723 13ZM38.2812 26.625V29.375C38.2812 29.65 38.4821 29.875 38.7277 29.875H43.192C43.4375 29.875 43.6384 29.65 43.6384 29.375V26.625C43.6384 26.35 43.4375 26.125 43.192 26.125H38.7277C38.4821 26.125 38.2812 26.35 38.2812 26.625ZM38.99 14.3L37.2545 12.3563C37.1706 12.2632 37.0573 12.211 36.9392 12.211C36.8211 12.211 36.7078 12.2632 36.6239 12.3563L33.4654 15.8937C33.3823 15.9877 33.3357 16.1146 33.3357 16.2469C33.3357 16.3791 33.3823 16.506 33.4654 16.6L35.2009 18.5438C35.3739 18.7375 35.6585 18.7375 35.8315 18.5438L38.99 15.0063C39.1629 14.8125 39.1629 14.4937 38.99 14.3ZM13.3984 12.3563C13.3145 12.2632 13.2012 12.211 13.0831 12.211C12.9651 12.211 12.8518 12.2632 12.7679 12.3563L11.0324 14.3C10.9493 14.394 10.9027 14.5209 10.9027 14.6531C10.9027 14.7854 10.9493 14.9123 11.0324 15.0063L14.1908 18.5438C14.3638 18.7375 14.6484 18.7375 14.8214 18.5438L16.5569 16.6C16.7299 16.4063 16.7299 16.0875 16.5569 15.8937L13.3984 12.3563ZM11.0491 26.125H6.58482C6.33929 26.125 6.13839 26.35 6.13839 26.625V29.375C6.13839 29.65 6.33929 29.875 6.58482 29.875H11.0491C11.2946 29.875 11.4955 29.65 11.4955 29.375V26.625C11.4955 26.35 11.2946 26.125 11.0491 26.125Z" fill="white"/>
</svg>
