<svg width="50" height="50" viewBox="0 0 50 50" fill="none" xmlns="http://www.w3.org/2000/svg">
<path d="M1.3742 2.30948C2.25524 0.830645 3.44953 0 4.69474 0C5.93995 0 7.13424 0.830645 8.01528 2.30948L25.0565 30.949L42.0978 2.30948C42.9885 0.914568 44.1667 0.155168 45.384 0.191265C46.6013 0.227361 47.7628 1.05614 48.6237 2.50299C49.4846 3.94985 49.9778 5.90181 49.9993 7.94766C50.0207 9.9935 49.5689 11.9735 48.7389 13.4705L28.3771 47.6905C27.496 49.1693 26.3017 50 25.0565 50C23.8113 50 22.617 49.1693 21.736 47.6905L1.3742 13.4705C0.494257 11.9898 0 9.98268 0 7.88998C0 5.79729 0.494257 3.79016 1.3742 2.30948Z" fill="white"/>
</svg>
