<svg width="50" height="50" viewBox="0 0 50 50" fill="none" xmlns="http://www.w3.org/2000/svg">
<path d="M25.5512 8.80154e-05C16.8667 -0.0231678 9.22435 4.56403 4.85648 11.4943C4.66286 11.8024 4.87926 12.2094 5.23803 12.2094H9.24143C9.51478 12.2094 9.77105 12.0873 9.94189 11.8722C10.3405 11.378 10.7676 10.9012 11.2175 10.4477C13.074 8.55821 15.2323 7.06984 17.6355 6.03496C20.1184 4.9652 22.7608 4.41868 25.4885 4.41868C28.2163 4.41868 30.8587 4.95938 33.3416 6.03496C35.7448 7.06984 37.9031 8.55821 39.7596 10.4477C41.6161 12.3373 43.0682 14.5408 44.0876 16.9884C45.1411 19.5233 45.6707 22.2152 45.6707 25C45.6707 27.7849 45.1354 30.4768 44.0876 33.0117C43.0739 35.4593 41.6161 37.6628 39.7596 39.5523C37.9031 41.4419 35.7448 42.9302 33.3416 43.9651C30.8567 45.0366 28.186 45.5863 25.4885 45.5814C22.7608 45.5814 20.1184 45.0349 17.6355 43.9651C15.237 42.9313 13.0575 41.4327 11.2175 39.5523C10.7676 39.093 10.3462 38.6163 9.94189 38.1279C9.77105 37.9128 9.50909 37.7907 9.24143 37.7907H5.23803C4.87926 37.7907 4.65716 38.1977 4.85648 38.5058C9.21866 45.4186 16.8268 50 25.4885 50C38.9395 50 49.8621 38.9477 49.9987 25.2559C50.1354 11.3431 39.1958 0.0349717 25.5512 8.80154e-05ZM18.3371 31.5117V27.0931H0.45558C0.205011 27.0931 0 26.8838 0 26.6279V23.3721C0 23.1163 0.205011 22.907 0.45558 22.907H18.3371V18.4884C18.3371 18.0989 18.7813 17.878 19.0774 18.1222L27.1582 24.6338C27.2127 24.6773 27.2567 24.7329 27.287 24.7963C27.3173 24.8598 27.333 24.9295 27.333 25C27.333 25.0706 27.3173 25.1403 27.287 25.2038C27.2567 25.2672 27.2127 25.3228 27.1582 25.3663L19.0774 31.8779C18.7813 32.1163 18.3371 31.9012 18.3371 31.5117Z" fill="black"/>
</svg>
