<svg width="50" height="50" viewBox="0 0 50 50" fill="none" xmlns="http://www.w3.org/2000/svg">
<path d="M22.7273 50C10.175 50 0 38.8075 0 25C0 11.1925 10.175 7.04571e-06 22.7273 7.04571e-06C26.256 -0.00290911 29.7368 0.899438 32.893 2.63536C36.0492 4.37128 38.794 6.89294 40.9091 10H34.75C32.1255 7.4544 28.889 5.7959 25.4289 5.22351C21.9688 4.65111 18.432 5.18914 15.2429 6.77304C12.0539 8.35693 9.34806 10.9194 7.45016 14.153C5.55225 17.3865 4.54288 21.1538 4.54318 25.0028C4.54347 28.8517 5.55341 32.6188 7.4518 35.852C9.3502 39.0852 12.0564 41.6472 15.2457 43.2305C18.435 44.8138 21.9718 45.3512 25.4319 44.7782C28.8919 44.2052 32.1282 42.5461 34.7523 40H40.9114C38.796 43.1074 36.0509 45.6293 32.8943 47.3652C29.7376 49.1011 26.2564 50.0033 22.7273 50V50ZM38.6364 35V27.5H20.4545V22.5H38.6364V15L50 25L38.6364 35Z" fill="white"/>
</svg>
