<svg width="100" height="101" viewBox="0 0 100 101" fill="none" xmlns="http://www.w3.org/2000/svg">
<path d="M0 5.5C0 2.73858 2.23858 0.5 5 0.5H95C97.7614 0.5 100 2.73858 100 5.5V95.5C100 98.2614 97.7614 100.5 95 100.5H5C2.23858 100.5 0 98.2614 0 95.5V5.5Z" fill="#0F253C"/>
<path d="M13.9453 19.7812H35.9766C38.6849 19.7812 41.263 20.1328 43.7109 20.8359C46.1589 21.5391 48.4375 22.5286 50.5469 23.8047C52.6562 25.0807 54.5703 26.6172 56.2891 28.4141C58.0078 30.1849 59.4661 32.1641 60.6641 34.3516C61.888 36.5391 62.8255 38.8958 63.4766 41.4219C64.1276 43.9219 64.4531 46.526 64.4531 49.2344C64.4531 51.9948 64.1276 54.638 63.4766 57.1641C62.8255 59.6901 61.888 62.0599 60.6641 64.2734C59.4661 66.487 58.0078 68.5052 56.2891 70.3281C54.5703 72.125 52.6562 73.6745 50.5469 74.9766C48.4375 76.2526 46.1589 77.2422 43.7109 77.9453C41.263 78.6484 38.6849 79 35.9766 79H13.9453V72.2812H19.5703V26.5391H13.9453V19.7812ZM27.2266 26.5391V72.2812H36.4453C39.1797 72.2812 41.7448 71.6823 44.1406 70.4844C46.5625 69.2865 48.6719 67.6589 50.4688 65.6016C52.2656 63.5182 53.6849 61.0833 54.7266 58.2969C55.7682 55.4844 56.2891 52.4635 56.2891 49.2344C56.2891 46.0573 55.7682 43.0885 54.7266 40.3281C53.6849 37.5677 52.2656 35.1719 50.4688 33.1406C48.6719 31.0833 46.5625 29.4688 44.1406 28.2969C41.7448 27.125 39.1797 26.5391 36.4453 26.5391H27.2266Z" fill="white"/>
<path d="M79.4815 79.8239C77.4361 79.8239 75.6842 79.1042 74.2259 77.6648C72.7865 76.2254 72.0762 74.483 72.0952 72.4375C72.0762 70.4299 72.7865 68.7159 74.2259 67.2955C75.6842 65.8561 77.4361 65.1364 79.4815 65.1364C81.4134 65.1364 83.1179 65.8561 84.5952 67.2955C86.0914 68.7159 86.849 70.4299 86.8679 72.4375C86.849 73.8011 86.4891 75.0417 85.7884 76.1591C85.1065 77.2765 84.2069 78.1667 83.0895 78.8295C81.991 79.4924 80.7884 79.8239 79.4815 79.8239Z" fill="#5160EA"/>
</svg>
