<svg width="51" height="51" viewBox="0 0 51 51" fill="none" xmlns="http://www.w3.org/2000/svg">
<path d="M21.5017 16.2266C21.0721 16.53 20.725 16.9359 20.4919 17.4073C20.2587 17.8788 20.147 18.401 20.1667 18.9266C20.1667 19.5897 19.9034 20.2256 19.4345 20.6944C18.9657 21.1632 18.3298 21.4266 17.6667 21.4266C17.0037 21.4266 16.3678 21.1632 15.899 20.6944C15.4301 20.2256 15.1667 19.5897 15.1667 18.9266C15.1667 15.9866 16.5267 13.6966 18.5167 12.2166C20.4367 10.7866 22.8667 10.1516 25.1667 10.1516C27.4667 10.1516 29.8917 10.7866 31.8167 12.2116C33.8067 13.6916 35.1667 15.9816 35.1667 18.9216C35.1667 21.0666 34.4917 22.6966 33.3317 23.9516C32.4167 24.9416 31.2417 25.6166 30.4317 26.0816L30.1767 26.2316C29.2417 26.7766 28.6967 27.1516 28.3267 27.6416C28.0067 28.0516 27.6667 28.7416 27.6667 30.1616C27.6667 30.8247 27.4034 31.4606 26.9345 31.9294C26.4657 32.3982 25.8298 32.6616 25.1667 32.6616C24.5037 32.6616 23.8678 32.3982 23.399 31.9294C22.9301 31.4606 22.6667 30.8247 22.6667 30.1616C22.6667 27.8316 23.2667 26.0216 24.3567 24.5966C25.3867 23.2516 26.7167 22.4566 27.6567 21.9116L27.7967 21.8316C28.7817 21.2566 29.2867 20.9616 29.6567 20.5566C29.9067 20.2916 30.1667 19.8966 30.1667 18.9216C30.1874 18.3959 30.0761 17.8734 29.8429 17.4017C29.6097 16.9301 29.2621 16.5244 28.8317 16.2216C27.9417 15.5666 26.6167 15.1566 25.1667 15.1566C23.7167 15.1566 22.3967 15.5666 21.5017 16.2316V16.2266ZM25.1667 40.1666C25.8298 40.1666 26.4657 39.9032 26.9345 39.4344C27.4034 38.9656 27.6667 38.3297 27.6667 37.6666C27.6667 37.0036 27.4034 36.3677 26.9345 35.8989C26.4657 35.43 25.8298 35.1666 25.1667 35.1666C24.5037 35.1666 23.8678 35.43 23.399 35.8989C22.9301 36.3677 22.6667 37.0036 22.6667 37.6666C22.6667 38.3297 22.9301 38.9656 23.399 39.4344C23.8678 39.9032 24.5037 40.1666 25.1667 40.1666V40.1666ZM0.166748 25.1666C0.166748 18.5362 2.80067 12.1774 7.48908 7.48896C12.1775 2.80055 18.5363 0.166626 25.1667 0.166626C31.7972 0.166626 38.156 2.80055 42.8444 7.48896C47.5328 12.1774 50.1667 18.5362 50.1667 25.1666C50.1667 31.797 47.5328 38.1559 42.8444 42.8443C38.156 47.5327 31.7972 50.1666 25.1667 50.1666C18.5363 50.1666 12.1775 47.5327 7.48908 42.8443C2.80067 38.1559 0.166748 31.797 0.166748 25.1666V25.1666ZM25.1667 5.16663C19.8624 5.16663 14.7753 7.27376 11.0246 11.0245C7.27389 14.7752 5.16675 19.8623 5.16675 25.1666C5.16675 30.471 7.27389 35.558 11.0246 39.3088C14.7753 43.0595 19.8624 45.1666 25.1667 45.1666C30.4711 45.1666 35.5582 43.0595 39.3089 39.3088C43.0596 35.558 45.1667 30.471 45.1667 25.1666C45.1667 19.8623 43.0596 14.7752 39.3089 11.0245C35.5582 7.27376 30.4711 5.16663 25.1667 5.16663V5.16663Z" fill="black"/>
</svg>
