<svg width="50" height="50" viewBox="0 0 50 50" fill="none" xmlns="http://www.w3.org/2000/svg">
<path d="M48.6258 47.6905C47.7448 49.1694 46.5505 50 45.3053 50C44.0601 50 42.8658 49.1694 41.9847 47.6905L24.9435 19.051L7.90221 47.6905C7.01146 49.0854 5.83332 49.8448 4.61599 49.8087C3.39866 49.7726 2.23719 48.9439 1.37627 47.497C0.515359 46.0502 0.0222104 44.0982 0.00073208 42.0523C-0.0207463 40.0065 0.431122 38.0265 1.26113 36.5295L21.6229 2.30949C22.504 0.83065 23.6983 -2.83035e-08 24.9435 -2.83035e-08C26.1887 -2.83035e-08 27.383 0.83065 28.264 2.30949L48.6258 36.5295C49.5057 38.0102 50 40.0173 50 42.11C50 44.2027 49.5057 46.2098 48.6258 47.6905Z" fill="white"/>
</svg>
