<svg width="51" height="50" viewBox="0 0 51 50" fill="none" xmlns="http://www.w3.org/2000/svg">
<path d="M49.036 40.804C47.7817 37.9973 45.9616 35.4479 43.677 33.2977C41.3993 31.1414 38.7011 29.4221 35.7315 28.2349C35.7049 28.2224 35.6783 28.2161 35.6518 28.2035C39.794 25.3769 42.4868 20.7726 42.4868 15.5779C42.4868 6.97236 35.1065 0 25.9976 0C16.8886 0 9.50831 6.97236 9.50831 15.5779C9.50831 20.7726 12.2011 25.3769 16.3434 28.2098C16.3168 28.2224 16.2902 28.2286 16.2636 28.2412C13.2849 29.4284 10.612 31.1307 8.31816 33.304C6.03565 35.4558 4.21582 38.0048 2.95915 40.8103C1.7246 43.5569 1.05877 46.5015 0.997725 49.4849C0.99595 49.552 1.0084 49.6187 1.03433 49.6811C1.06027 49.7435 1.09917 49.8004 1.14874 49.8484C1.19831 49.8964 1.25755 49.9345 1.32296 49.9606C1.38838 49.9866 1.45865 50 1.52964 50H5.51897C5.81152 50 6.04423 49.7802 6.05088 49.5101C6.18386 44.6608 8.24502 40.1193 11.8886 36.6771C15.6585 33.1156 20.6651 31.1558 25.9976 31.1558C31.33 31.1558 36.3366 33.1156 40.1065 36.6771C43.7501 40.1193 45.8113 44.6608 45.9442 49.5101C45.9509 49.7864 46.1836 50 46.4761 50H50.4655C50.5365 50 50.6067 49.9866 50.6722 49.9606C50.7376 49.9345 50.7968 49.8964 50.8464 49.8484C50.896 49.8004 50.9348 49.7435 50.9608 49.6811C50.9867 49.6187 50.9992 49.552 50.9974 49.4849C50.9309 46.4824 50.2727 43.5616 49.036 40.804ZM25.9976 26.3819C22.9457 26.3819 20.0734 25.2575 17.9125 23.2161C15.7516 21.1746 14.5615 18.4611 14.5615 15.5779C14.5615 12.6947 15.7516 9.98116 17.9125 7.9397C20.0734 5.89824 22.9457 4.77387 25.9976 4.77387C29.0494 4.77387 31.9217 5.89824 34.0826 7.9397C36.2435 9.98116 37.4337 12.6947 37.4337 15.5779C37.4337 18.4611 36.2435 21.1746 34.0826 23.2161C31.9217 25.2575 29.0494 26.3819 25.9976 26.3819Z" fill="white"/>
</svg>
