<svg width="44" height="30" viewBox="0 0 44 30" fill="none" xmlns="http://www.w3.org/2000/svg">
<path d="M42.6136 19.3756V15.4982H39.5227V10.8545H42.4432V7.19282H39.5227V3.9541H35.2301V14.9618C35.2301 15.5408 35.3437 16.1142 35.5653 16.6507C35.7869 17.1871 36.1108 17.6725 36.5199 18.0841C36.929 18.4928 37.4148 18.8193 37.9489 19.0407C38.4829 19.2621 39.054 19.3756 39.6335 19.3756H42.6165H42.6136Z" fill="#002047"/>
<path d="M12.2358 7.19556V10.8572H13.6961V19.3755H17.9887V7.19556H12.2358Z" fill="#002047"/>
<path d="M2.55682 7.19557H0V10.8572H2.55682V19.3755H6.84943V10.8572H10.5V7.19557H6.84943V3.87738H10.7131V0H7.11364C5.90341 0 4.74432 0.479705 3.8892 1.33693C3.03409 2.19415 2.55398 3.35793 2.55114 4.56997V7.19557H2.55682Z" fill="#002047"/>
<path d="M20.3466 19.3756H24.6392V12.9606C24.6392 11.3909 25.6761 10.5053 26.9119 10.5053C28.1477 10.5053 29.1449 11.459 29.1449 12.8243V19.3756H33.4375V12.566C33.4375 8.98103 31.6108 6.90894 28.2472 6.90894C26.6705 6.90894 25.1222 7.51353 24.2983 8.61771V7.2013H20.3494L20.3438 19.3784L20.3466 19.3756Z" fill="#002047"/>
<path d="M15.0795 0.669986L13.2188 2.53771C12.9375 2.81872 12.9375 3.27288 13.2188 3.55389L15.0795 5.42162C15.3608 5.70263 15.8125 5.70263 16.0938 5.42162L17.9545 3.55389C18.2358 3.27288 18.2358 2.81872 17.9545 2.53771L16.0938 0.669986C15.8125 0.388976 15.3608 0.388976 15.0795 0.669986Z" fill="#002047"/>
<path d="M4.40625 25.0213C4.0483 25.0213 3.7358 25.1235 3.47727 25.3251V23.5652H2.125V24.394H2.59659V28.3736H3.44318V28.1096C3.71307 28.3395 4.02557 28.4417 4.35795 28.4417C4.84659 28.4417 5.30682 28.226 5.59943 27.8854C5.85795 27.5873 6.01989 27.1814 6.01989 26.7329C6.01989 25.765 5.30114 25.0185 4.40625 25.0185V25.0213ZM4.26989 27.6299C3.9375 27.6299 3.64489 27.4681 3.47727 27.224V26.2419C3.65909 25.9978 3.9517 25.836 4.28977 25.836C4.80398 25.836 5.13636 26.2618 5.13636 26.7358C5.13636 27.2495 4.7642 27.6299 4.26989 27.6299Z" fill="#002047"/>
<path d="M10.0398 25.0896H9.11079H8.53124V25.7822H8.79829L8.22442 27.0595L7.59942 25.7822H7.80113V25.0896H7.26135H6.2926V25.7822H6.63635L7.76135 28.0416L6.8551 30.0002H7.77556L9.71874 25.7822H10.0398V25.0896Z" fill="#002047"/>
<path d="M40.5599 28.3734V25.8585H40.0486V25.0325H41.4009V25.5037L41.4719 25.4384C41.7105 25.2141 42.0599 25.0637 42.381 25.0467C42.4463 25.0438 42.4918 25.041 42.5344 25.041C42.5827 25.041 42.6281 25.041 42.6935 25.0467V25.8102C42.6651 25.8102 42.6395 25.8102 42.6111 25.8102C42.4861 25.8102 42.3696 25.8272 42.2219 25.867C41.8327 25.972 41.5429 26.2757 41.4406 26.4546L41.4349 26.4631V28.3734H40.5599Z" fill="#002047"/>
<path d="M11.5883 28.3847V27.5587H12.0826V24.3909H11.5883V23.5649H13.5627C14.2587 23.5649 14.7729 23.7097 15.1848 24.0191C15.7701 24.4647 16.1195 25.1971 16.1195 25.9748C16.1195 26.7526 15.7701 27.4849 15.1848 27.9305C14.7729 28.2399 14.2587 28.3847 13.5627 28.3847H11.5883ZM12.9917 27.5587H13.665C14.1934 27.5587 14.5883 27.3827 14.8695 27.0222C15.0911 26.7384 15.2133 26.3665 15.2133 25.9748C15.2133 25.5831 15.0911 25.2113 14.8695 24.9274C14.5883 24.5669 14.1934 24.3909 13.665 24.3909H12.9917V27.5587Z" fill="#002047"/>
<path d="M18.1508 28.453C17.1451 28.453 16.4406 27.7405 16.4406 26.7187C16.4406 26.2532 16.594 25.8217 16.8724 25.4981C17.1621 25.1603 17.5741 24.9758 18.0286 24.9758C18.4576 24.9758 18.8525 25.1547 19.1366 25.4811C19.415 25.799 19.5684 26.2248 19.5684 26.6846C19.5684 26.7783 19.5627 26.8663 19.5485 26.9401H17.2871L17.2957 26.9883C17.3638 27.434 17.7161 27.732 18.1707 27.732C18.6252 27.732 18.9093 27.4368 18.9917 27.346L19.4888 27.8569C19.1849 28.2259 18.6735 28.4558 18.1508 28.4558V28.453ZM18.0286 25.6996C17.6621 25.6996 17.3979 25.975 17.3383 26.2333L17.3269 26.2844H18.6763L18.6678 26.2333C18.6195 25.975 18.3809 25.6968 18.0286 25.6968V25.6996Z" fill="#002047"/>
<path d="M21.6252 28.453C21.1423 28.453 20.6963 28.2742 20.3724 27.9477C20.0514 27.627 19.8752 27.1899 19.8752 26.7187C19.8752 25.7422 20.648 24.9758 21.6309 24.9758C22.1735 24.9758 22.6877 25.2256 23.0031 25.6429L22.3838 26.1992C22.1906 25.9409 21.9235 25.799 21.6309 25.799C21.1366 25.799 20.7502 26.2021 20.7502 26.7158C20.7502 27.2296 21.1224 27.6241 21.6508 27.6241C22.0173 27.6241 22.2957 27.3971 22.4321 27.1842L23.1054 27.7008C22.736 28.206 22.2502 28.4501 21.6252 28.4501V28.453Z" fill="#002047"/>
<path d="M24.9633 28.453C23.9576 28.453 23.2531 27.7405 23.2531 26.7187C23.2531 26.2532 23.4065 25.8217 23.6849 25.4981C23.9746 25.1603 24.3866 24.9758 24.8411 24.9758C25.2701 24.9758 25.665 25.1547 25.9491 25.4811C26.2275 25.799 26.3809 26.2248 26.3809 26.6846C26.3809 26.7754 26.3752 26.8634 26.361 26.9401H24.0996L24.1082 26.9883C24.1763 27.434 24.5258 27.732 24.9832 27.732C25.4406 27.732 25.7218 27.4368 25.8042 27.346L26.3013 27.8569C25.9974 28.2259 25.486 28.4558 24.9633 28.4558V28.453ZM24.8411 25.6996C24.4746 25.6996 24.2104 25.975 24.1508 26.2333L24.1394 26.2844H25.4888L25.4803 26.2333C25.432 25.975 25.1934 25.6968 24.8411 25.6968V25.6996Z" fill="#002047"/>
<path d="M31.4633 28.3847V26.5823C31.4633 26.2445 31.3866 26.1082 31.3013 26.0117C31.1422 25.8329 30.9263 25.8045 30.8099 25.8045C30.432 25.8045 30.1422 26.0742 30.0315 26.2303L30.0229 26.2445V26.2615C30.0371 26.3694 30.0513 26.4858 30.0513 26.6163V28.3847H29.1763V26.5823C29.1763 26.2445 29.0996 26.1082 29.0144 26.0117C28.8553 25.8329 28.6394 25.8045 28.5229 25.8045C28.1309 25.8045 27.8667 26.0855 27.7729 26.2047L27.7644 26.2161V28.3847H26.8894V25.0466H27.7303V25.3106L27.7985 25.2567C28.0286 25.075 28.307 24.9785 28.611 24.9785C29.0229 24.9785 29.4121 25.1573 29.6792 25.4667L29.7104 25.5008L29.7417 25.4667C30.0485 25.1545 30.4576 24.9785 30.8667 24.9785C31.3155 24.9785 31.7445 25.18 32.0116 25.515C32.2332 25.7932 32.3411 26.1536 32.3411 26.6163V28.3847H31.4661H31.4633Z" fill="#002047"/>
<path d="M34.6536 28.453C34.3383 28.453 34.057 28.3593 33.8127 28.172L33.7445 28.118V28.382H32.9036V24.3883H32.432V23.5623H33.7786V25.2824L33.8468 25.2341C34.0883 25.061 34.3752 24.9758 34.7019 24.9758C35.5996 24.9758 36.3042 25.7422 36.3042 26.7187C36.3042 27.1558 36.1564 27.5702 35.8866 27.8881C35.5883 28.2429 35.128 28.453 34.6564 28.453H34.6536ZM34.5854 25.8018C34.2701 25.8018 33.9803 25.9494 33.7871 26.202L33.7786 26.2134V27.2126L33.7871 27.2239C33.9633 27.4765 34.2559 27.627 34.5655 27.627C35.057 27.627 35.4263 27.2353 35.4263 26.7187C35.4263 26.1226 34.9917 25.8018 34.5854 25.8018Z" fill="#002047"/>
<path d="M38.3639 28.453C37.3582 28.453 36.6537 27.7405 36.6537 26.7187C36.6537 26.2532 36.8071 25.8217 37.0855 25.4981C37.3753 25.1603 37.7872 24.9758 38.2418 24.9758C38.6707 24.9758 39.0656 25.1547 39.3497 25.4811C39.6281 25.799 39.7815 26.2248 39.7815 26.6846C39.7815 26.7754 39.7758 26.8634 39.7616 26.9401H37.5003L37.5088 26.9883C37.577 27.434 37.9264 27.732 38.3838 27.732C38.8412 27.732 39.1224 27.4368 39.2048 27.346L39.702 27.8569C39.398 28.2259 38.8866 28.4558 38.3639 28.4558V28.453ZM38.2418 25.6996C37.8753 25.6996 37.6111 25.975 37.5514 26.2333L37.54 26.2844H38.8895L38.881 26.2333C38.8327 25.975 38.594 25.6968 38.2418 25.6968V25.6996Z" fill="#002047"/>
<path d="M43.2758 28.4761C42.8753 28.4761 42.5514 28.1496 42.5514 27.7492C42.5514 27.3488 42.8753 27.0222 43.2758 27.0222C43.6764 27.0222 44.0003 27.3488 44.0003 27.7492C44.0003 28.1496 43.6736 28.4761 43.2758 28.4761Z" fill="#002047"/>
</svg>
