<svg width="40" height="40" viewBox="0 0 40 40" fill="none" xmlns="http://www.w3.org/2000/svg">
<path d="M33.5352 29.8281C32.7983 28.0827 31.729 26.4973 30.3867 25.1602C29.0486 23.8192 27.4634 22.75 25.7188 22.0117C25.7031 22.0039 25.6875 22 25.6719 21.9922C28.1055 20.2344 29.6875 17.3711 29.6875 14.1406C29.6875 8.78906 25.3516 4.45312 20 4.45312C14.6484 4.45312 10.3125 8.78906 10.3125 14.1406C10.3125 17.3711 11.8945 20.2344 14.3281 21.9961C14.3125 22.0039 14.2969 22.0078 14.2813 22.0156C12.5313 22.7539 10.9609 23.8125 9.61329 25.1641C8.27231 26.5022 7.20315 28.0874 6.46485 29.832C5.73955 31.5401 5.34837 33.3713 5.31251 35.2266C5.31146 35.2683 5.31878 35.3097 5.33401 35.3486C5.34925 35.3874 5.3721 35.4228 5.40123 35.4526C5.43035 35.4825 5.46515 35.5062 5.50358 35.5224C5.54202 35.5386 5.5833 35.5469 5.62501 35.5469H7.96876C8.14063 35.5469 8.27735 35.4102 8.28126 35.2422C8.35938 32.2266 9.57032 29.4023 11.7109 27.2617C13.9258 25.0469 16.8672 23.8281 20 23.8281C23.1328 23.8281 26.0742 25.0469 28.2891 27.2617C30.4297 29.4023 31.6406 32.2266 31.7188 35.2422C31.7227 35.4141 31.8594 35.5469 32.0313 35.5469H34.375C34.4167 35.5469 34.458 35.5386 34.4964 35.5224C34.5349 35.5062 34.5697 35.4825 34.5988 35.4526C34.6279 35.4228 34.6508 35.3874 34.666 35.3486C34.6812 35.3097 34.6885 35.2683 34.6875 35.2266C34.6484 33.3594 34.2617 31.543 33.5352 29.8281V29.8281ZM20 20.8594C18.207 20.8594 16.5195 20.1602 15.25 18.8906C13.9805 17.6211 13.2813 15.9336 13.2813 14.1406C13.2813 12.3477 13.9805 10.6602 15.25 9.39062C16.5195 8.12109 18.207 7.42188 20 7.42188C21.793 7.42188 23.4805 8.12109 24.75 9.39062C26.0195 10.6602 26.7188 12.3477 26.7188 14.1406C26.7188 15.9336 26.0195 17.6211 24.75 18.8906C23.4805 20.1602 21.793 20.8594 20 20.8594Z" fill="black"/>
</svg>
